<?xml version="1.0" encoding="utf-8"?>
<!-- Generator: Adobe Illustrator 27.5.0, SVG Export Plug-In . SVG Version: 6.00 Build 0)  -->
<svg version="1.1" xmlns="http://www.w3.org/2000/svg" xmlns:xlink="http://www.w3.org/1999/xlink" x="0px" y="0px"
	 viewBox="0 0 500 500" style="enable-background:new 0 0 500 500;" xml:space="preserve">
<g id="Floor">
	<path id="Floor_8_" style="fill:#F5F5F5;" d="M87.383,419.895c90.424,46.473,237.03,46.474,327.452,0.001
		c90.424-46.474,90.424-121.822,0-168.295c-90.423-46.474-237.029-46.474-327.453-0.001
		C-3.041,298.073-3.041,373.422,87.383,419.895z"/>
</g>
<g id="Shadows">
	<path id="Shadow_15_" style="fill:#E0E0E0;" d="M335.909,367.798l50.449-29.122c1.35-0.78,3.592-0.883,5.007-0.229l51.443,29.697
		c1.415,0.654,1.468,1.816,0.118,2.595l-51.416,29.608c-1.35,0.78-3.47,0.671-4.734-0.242l-51.024-29.243
		C334.489,369.951,334.559,368.578,335.909,367.798z"/>
	<path id="Shadow_3_" style="fill:#E0E0E0;" d="M291.268,335.964c-20.114,9.588-52.725,9.588-72.839,0
		c-20.115-9.585-20.115-25.129,0-34.717c20.114-9.585,52.725-9.585,72.839,0C311.383,310.835,311.383,326.379,291.268,335.964z"/>
</g>
<g id="Plants">
	<g id="Plants_6_">
		<g id="pLANTS_2_">
			<g id="XMLID_1055_">
				<g id="XMLID_1058_">
					<path id="XMLID_1060_" style="fill:#27DEBF;" d="M432.795,354.067c0.082-4.71,3.659-14.407,8.653-20.438
						c4.994-6.031,12.757-10.368,18.183-8.406c5.054,1.828,4.387,8.488-1.859,12.801c-6.246,4.312-15.615,9.703-18.461,17.296
						l-5.855,9.275L432.795,354.067z"/>
					<path id="XMLID_1059_" style="opacity:0.1;" d="M432.795,354.067c0.082-4.71,3.659-14.407,8.653-20.438
						c4.994-6.031,12.757-10.368,18.183-8.406c5.054,1.828,4.387,8.488-1.859,12.801c-6.246,4.312-15.615,9.703-18.461,17.296
						l-5.855,9.275L432.795,354.067z"/>
				</g>
				<g id="XMLID_1056_">
					<path id="XMLID_1057_" style="fill:#FFFFFF;" d="M432.335,360.507c0.15-0.01,0.282-0.118,0.315-0.271
						c3.435-16.024,16.67-28.866,24.505-31.618c0.179-0.063,0.274-0.26,0.211-0.439c-0.062-0.178-0.255-0.277-0.439-0.211
						c-7.985,2.804-21.464,15.856-24.95,32.123c-0.04,0.186,0.078,0.368,0.264,0.408
						C432.273,360.506,432.304,360.509,432.335,360.507z"/>
				</g>
			</g>
			<g id="XMLID_1050_">
				<g id="XMLID_1053_">
					<path id="XMLID_1054_" style="fill:#27DEBF;" d="M434.553,370.84c0.803-2.634,4.113-6.947,9.407-10.465
						c5.856-3.892,13.211-5.6,14.953-8.678c2.093-3.698-0.992-7.28-6.949-6.646c-5.956,0.633-16.548,8.561-18.432,20.741
						L434.553,370.84z"/>
				</g>
				<g id="XMLID_1051_">
					<path id="XMLID_1052_" style="fill:#FFFFFF;" d="M433.452,368.042c0.131-0.008,0.251-0.091,0.301-0.222
						c5.171-13.689,15.765-18.34,20.643-18.887c0.189-0.021,0.325-0.192,0.304-0.38c-0.021-0.189-0.184-0.325-0.38-0.304
						c-5.395,0.605-15.933,5.356-21.211,19.328c-0.067,0.177,0.023,0.377,0.201,0.444
						C433.356,368.038,433.404,368.045,433.452,368.042z"/>
				</g>
			</g>
		</g>
		<g id="Plants_10_">
			<g id="XMLID_1041_">
				<g id="XMLID_1046_">
					<path id="XMLID_1047_" style="fill:#27DEBF;" d="M103.324,339.013l5.916-3.38c0,0,2.838-15.638,0.715-29.08
						c-2.984-18.899-15.852-25.418-20.525-23.54c-4.673,1.879-5.772,7.477,2.668,18.397
						C97.079,307.853,103.484,321.473,103.324,339.013z"/>
				</g>
				<g id="XMLID_1044_" style="opacity:0.1;">
					<path id="XMLID_1045_" d="M103.324,339.013l5.916-3.38c0,0,2.838-15.638,0.715-29.08c-2.984-18.899-15.852-25.418-20.525-23.54
						c-4.673,1.879-5.772,7.477,2.668,18.397C97.079,307.853,103.484,321.473,103.324,339.013z"/>
				</g>
				<g id="XMLID_1042_">
					<path id="XMLID_1043_" style="fill:#FFFFFF;" d="M105.469,331.507c-0.02,0-0.039-0.002-0.059-0.004
						c-0.231-0.032-0.392-0.245-0.36-0.475c2.445-17.694-4.67-37.079-12.665-44.892c-0.166-0.162-0.17-0.43-0.007-0.596
						c0.163-0.165,0.43-0.17,0.596-0.007c8.141,7.955,15.392,27.656,12.911,45.61C105.857,331.354,105.676,331.507,105.469,331.507z
						"/>
				</g>
			</g>
			<g id="XMLID_1030_">
				<g id="XMLID_1038_">
					<path id="XMLID_1040_" style="fill:#27DEBF;" d="M86.909,348.496c-0.935,0.537-2.861-0.637-3.6-1.132
						c-1.263-0.848-2.287-2.048-2.967-3.406c-0.791-1.58-0.991-3.273-0.743-5.021c0.129-0.906,0.382-1.79,0.635-2.67
						c0.248-0.864,0.497-1.728,0.745-2.592c0.245-0.853,0.493-1.734,0.38-2.614c-0.227-1.772-1.8-3.014-3.23-4.085
						c-1.582-1.184-3.229-2.748-3.22-4.882c0.007-1.646,0.86-3.176,1.88-4.468c1.02-1.292,2.231-2.434,3.153-3.798
						c0.664-0.982,1.182-2.135,1.074-3.316c-0.067-0.733-0.371-1.424-0.722-2.072c-0.754-1.389-1.748-2.662-2.267-4.155
						c-0.52-1.493-0.446-3.349,0.719-4.417c0.956-0.877,2.377-0.999,3.672-0.914c1.198,0.079,2.367,0.619,3.415,1.202
						c3.388,1.884,5.321,5.896,8.916,7.346c1.387,0.559,2.906,0.681,4.351,1.063c1.445,0.382,2.919,1.12,3.588,2.457
						c1.32,2.636-1.129,5.884-0.202,8.682c0.821,2.476,3.227,3.424,4.578,5.655c0.591,0.976,0.727,2.104,0.632,3.241
						c-0.161,1.924-0.443,3.337-1.367,5.477c-0.763,1.769-3.006,4.934-3.006,4.934C103.268,339.068,87.053,348.413,86.909,348.496z"
						/>
				</g>
				<g id="XMLID_1035_">
					<path id="XMLID_1036_" style="fill:#FFFFFF;" d="M96.513,343.379c-0.006,0-0.011,0-0.011,0c-0.239-0.01-0.419-0.207-0.41-0.439
						c0.697-16.747-7.194-35.236-12.932-40.608c-0.17-0.159-0.179-0.426-0.02-0.596c0.16-0.17,0.426-0.178,0.596-0.02
						c5.854,5.479,13.905,24.276,13.199,41.258C96.925,343.201,96.738,343.379,96.513,343.379z"/>
				</g>
				<g id="XMLID_1031_">
					<path id="XMLID_1033_" style="fill:#FFFFFF;" d="M94.004,323.593c-0.041,0-0.083-0.006-0.124-0.019
						c-5.381-1.663-12.087-1.957-12.154-1.959c-0.233-0.01-0.414-0.207-0.404-0.439c0.01-0.232,0.186-0.416,0.439-0.404
						c0.068,0.003,6.881,0.301,12.368,1.997c0.222,0.068,0.348,0.305,0.278,0.527C94.351,323.477,94.185,323.593,94.004,323.593z"/>
				</g>
			</g>
		</g>
	</g>
</g>
<g id="Board">
	<g id="XMLID_223_">
		<g id="XMLID_220_">
			<polygon id="XMLID_351_" style="fill:#37474F;" points="157.131,279.786 157.131,277.387 114.478,302.06 116.512,303.26 			"/>
			<g id="XMLID_243_">
				<path id="XMLID_749_" style="fill:#37474F;" d="M103.948,117.372c0.216,0.125,0.326,0.375,0.271,0.618L68.881,274.872
					l-1.01,4.45c-0.51,0.03-1.02-0.07-1.41-0.28c-0.01-0.01-0.02-0.01-0.03-0.02l-2.368-1.37c-0.216-0.125-0.325-0.375-0.27-0.618
					l36.278-161.047c0.084-0.375,0.508-0.56,0.84-0.368L103.948,117.372z"/>
				<path id="XMLID_713_" style="fill:#455A64;" d="M108.381,115.232L71.922,277.036c-0.058,0.258-0.222,0.48-0.451,0.613
					l-2.371,1.372c-0.34,0.2-0.78,0.3-1.23,0.3l1.01-4.45l35.43-157.29L108.381,115.232z"/>
			</g>
			<g id="XMLID_235_">
				<path id="XMLID_741_" style="fill:#37474F;" d="M112.451,333.292v4.68c-0.48,0-0.95-0.1-1.31-0.3
					c-0.01-0.01-0.02-0.01-0.03-0.02l-2.2-1.27c-0.36-0.21-0.53-0.49-0.53-0.76l-0.01-140.5l4.07,2.35L112.451,333.292z"/>
				<path id="XMLID_742_" style="fill:#455A64;" d="M116.521,195.132l-0.01,140.44v0.1c-0.01,0.26-0.2,0.51-0.54,0.71l-2.19,1.27
					c-0.36,0.22-0.85,0.32-1.33,0.32v-4.68l-0.01-135.82L116.521,195.132z"/>
			</g>
			<g id="XMLID_222_">
				<path id="XMLID_735_" style="fill:#37474F;" d="M165.181,307.532c-0.28,0-0.782-0.092-1.266-0.369l-2.264-1.309
					c-0.291-0.168-0.494-0.454-0.557-0.784l-24.233-126.398l4.07,2.35l23.38,121.96L165.181,307.532z"/>
				<path id="XMLID_716_" style="fill:#455A64;" d="M169.241,305.162c0,0.01,0,0.01,0,0.02c0,0.28-0.19,0.55-0.56,0.77l-2.07,1.2
					l-0.1,0.06c-0.37,0.21-0.85,0.32-1.33,0.32l-0.87-4.55l-23.38-121.96l4.08-2.34l24.19,126.3c0,0.01,0.01,0.02,0.01,0.03
					L169.241,305.162z"/>
			</g>
			<polygon id="XMLID_221_" style="fill:#455A64;" points="115.114,308.74 161.193,282.137 161.193,277.446 115.114,304.05 			"/>
		</g>
		<g id="XMLID_266_">
			<path id="XMLID_259_" style="fill:#27DEBF;" d="M51.517,239.077v1.69c0,0.828,0.582,1.836,1.299,2.25l13.65,7.881
				c0.717,0.414,1.881,0.414,2.598,0l115.201-66.511c0.717-0.414,1.299-1.422,1.299-2.25v-1.691c0-0.828-0.582-1.836-1.299-2.25
				l-13.65-7.881c-0.717-0.414-1.881-0.414-2.598,0L52.816,236.827C52.099,237.241,51.517,238.249,51.517,239.077z"/>
			<path id="XMLID_263_" style="opacity:0.4;fill:#FFFFFF;" d="M52.816,238.327l13.65,7.881c0.717,0.414,1.881,0.414,2.598,0
				l115.201-66.511c0.717-0.414,0.717-1.086,0-1.5l-13.65-7.881c-0.717-0.414-1.881-0.414-2.598,0L52.816,236.827
				C52.099,237.241,52.099,237.913,52.816,238.327z"/>
			<path id="XMLID_299_" style="opacity:0.1;" d="M67.761,246.521v4.69c-0.47,0-0.94-0.11-1.29-0.31l-13.65-7.88
				c-0.72-0.42-1.3-1.43-1.3-2.25v-1.69c0-0.73,0.44-1.59,1.04-2.07c-0.45,0.41-0.36,0.96,0.26,1.32l13.65,7.88
				C66.821,246.412,67.301,246.521,67.761,246.521z"/>
		</g>
		<g id="XMLID_269_">
			<path id="XMLID_264_" style="fill:#E0E0E0;" d="M61.536,243.363l-3.795-2.191c-1.196-0.69-2.23-2.367-2.309-3.746l-7.833-135.721
				c-0.079-1.378,0.825-3.055,2.021-3.746l113.469-65.511c1.196-0.69,3.134-0.691,4.33,0l3.797,2.191
				c1.196,0.69,2.23,2.367,2.309,3.746l7.834,135.721c0.08,1.379-0.825,3.056-2.021,3.746L65.866,243.363
				C64.67,244.053,62.732,244.053,61.536,243.363z"/>
			<path id="XMLID_338_" style="fill:#FAFAFA;" d="M173.471,38.012c-0.23-1.1-1.17-1.49-2.26-0.87l-113.47,65.51
				c-0.6,0.35-1.13,0.95-1.49,1.63l-8.13-4.69c0.37-0.68,0.9-1.28,1.5-1.63l113.47-65.51c1.19-0.69,3.13-0.69,4.32-0.01l3.82,2.2
				C172.321,35.282,173.261,36.722,173.471,38.012z"/>
			<path id="XMLID_265_" style="fill:#F0F0F0;" d="M55.722,106.395l7.834,135.721c0.08,1.378,1.113,1.936,2.309,1.246
				l113.472-65.511c1.196-0.69,2.101-2.367,2.021-3.746l-7.834-135.721c-0.08-1.378-1.113-1.936-2.309-1.246L57.743,102.65
				C56.548,103.34,55.643,105.017,55.722,106.395z"/>
		</g>
		<g id="XMLID_279_">
			<path id="XMLID_270_" style="fill:#263238;" d="M140.881,55.7l0,7.281c0,0.58-0.407,1.285-0.909,1.575L93.046,91.648
				c-0.502,0.29-1.316,0.29-1.819,0l-2.243-1.295c-0.502-0.29-0.909-0.995-0.909-1.575l0.002-3.641l-8.126-4.686l-4.055,2.341
				l-0.006-8.331c0-0.58,0.406-1.285,0.909-1.575l46.926-27.093c0.502-0.29,1.316-0.29,1.819,0l14.429,8.331
				C140.473,54.415,140.881,55.12,140.881,55.7z"/>
			<path id="XMLID_344_" style="fill:#37474F;" d="M140.881,55.701v7.28c0,0.58-0.41,1.28-0.91,1.57l-46.92,27.1
				c-0.26,0.14-0.58,0.21-0.91,0.21v-9.37c0.33,0,0.66-0.08,0.91-0.22l46.92-27.1c0.44-0.25,0.49-0.65,0.16-0.93
				C140.561,54.572,140.881,55.182,140.881,55.701z"/>
			<path id="XMLID_275_" style="fill:#455A64;" d="M76.798,73.937l14.432,8.331c0.502,0.29,1.316,0.29,1.819,0l46.923-27.093
				c0.502-0.29,0.502-0.76,0-1.05l-14.429-8.331c-0.502-0.29-1.316-0.29-1.819,0L76.798,72.887
				C76.296,73.176,76.296,73.647,76.798,73.937z"/>
		</g>
		<g id="XMLID_102_">
			<path id="XMLID_337_" style="fill:#27DEBF;" d="M69.555,132.711c0.559,9.682,7.94,13.531,16.486,8.597
				c8.546-4.934,15.021-16.782,14.463-26.464c-0.559-9.682-7.94-13.532-16.486-8.598C75.471,111.18,68.996,123.028,69.555,132.711z"
				/>
			<path id="XMLID_349_" style="opacity:0.1;" d="M94.945,104.919l-9.92,18.86l-1.01-17.53
				C88.145,103.869,91.995,103.529,94.945,104.919z"/>
			<path id="XMLID_345_" style="opacity:0.2;" d="M98.115,126.929l-13.09-3.15l9.92-18.86c3.16,1.47,5.27,4.92,5.56,9.93
				C100.725,118.719,99.825,122.949,98.115,126.929z"/>
			<path id="XMLID_339_" style="fill:#37474F;" d="M108.215,103.207l0.086,1.544c0.046,0.827,0.665,1.162,1.383,0.748
				c7.485-4.321,45.027-25.989,52.513-30.31c0.717-0.414,1.262-1.421,1.216-2.248l-0.086-1.544
				c-0.046-0.827-0.665-1.162-1.382-0.748l-52.513,30.31C108.713,101.373,108.169,102.38,108.215,103.207z"/>
			<path id="XMLID_631_" style="fill:#27DEBF;" d="M112.372,111.949l0.146,2.543c0.032,0.551-0.331,1.222-0.809,1.497l-1.827,1.052
				c-0.479,0.276-0.891,0.052-0.922-0.499l-0.14-2.543c-0.03-0.551,0.333-1.222,0.811-1.498l1.818-1.05
				C111.927,111.174,112.34,111.397,112.372,111.949z"/>
			<path id="XMLID_636_" style="fill:#455A64;" d="M162.829,86.482l-44.795,25.848c-0.718,0.414-1.336,0.079-1.382-0.748
				l-0.085-1.544c-0.046-0.827,0.499-1.833,1.217-2.248l44.785-25.848c0.717-0.414,1.337-0.079,1.385,0.748l0.089,1.545
				C164.09,85.062,163.546,86.068,162.829,86.482z"/>
			<path id="XMLID_630_" style="fill:#27DEBF;" d="M112.88,123.339l0.14,2.543c0.03,0.551-0.333,1.222-0.811,1.499l-1.818,1.05
				c-0.478,0.276-0.891,0.053-0.921-0.498l-0.14-2.543c-0.03-0.551,0.333-1.222,0.811-1.499l1.818-1.05
				C112.437,122.565,112.849,122.788,112.88,123.339z"/>
			<path id="XMLID_356_" style="opacity:0.1;" d="M112.88,123.339l0.14,2.543c0.03,0.551-0.333,1.222-0.811,1.499l-1.818,1.05
				c-0.478,0.276-0.891,0.053-0.921-0.498l-0.14-2.543c-0.03-0.551,0.333-1.222,0.811-1.499l1.818-1.05
				C112.437,122.565,112.849,122.788,112.88,123.339z"/>
			<path id="XMLID_647_" style="fill:#455A64;" d="M163.339,97.873l-44.805,25.858c-0.717,0.414-1.336,0.079-1.382-0.748
				l-0.085-1.545c-0.046-0.827,0.499-1.833,1.217-2.247l44.805-25.858c0.717-0.414,1.336-0.079,1.382,0.748l0.085,1.545
				C164.601,96.453,164.057,97.459,163.339,97.873z"/>
			<path id="XMLID_628_" style="fill:#27DEBF;" d="M113.382,134.826l0.145,2.533c0.032,0.551-0.33,1.222-0.809,1.498l-1.838,1.06
				c-0.478,0.276-0.891,0.053-0.921-0.499l-0.14-2.533c-0.031-0.551,0.332-1.223,0.81-1.499l1.829-1.058
				C112.937,134.052,113.351,134.275,113.382,134.826z"/>
			<path id="XMLID_357_" style="opacity:0.2;" d="M113.382,134.826l0.145,2.533c0.032,0.551-0.33,1.222-0.809,1.498l-1.838,1.06
				c-0.478,0.276-0.891,0.053-0.921-0.499l-0.14-2.533c-0.031-0.551,0.332-1.223,0.81-1.499l1.829-1.058
				C112.937,134.052,113.351,134.275,113.382,134.826z"/>
			<path id="XMLID_648_" style="fill:#455A64;" d="M163.829,109.36l-44.795,25.848c-0.718,0.414-1.336,0.079-1.382-0.748
				l-0.085-1.535c-0.046-0.827,0.499-1.834,1.216-2.248l44.795-25.857c0.717-0.414,1.336-0.079,1.382,0.748l0.085,1.545
				C165.091,107.94,164.546,108.946,163.829,109.36z"/>
			<path id="XMLID_340_" style="fill:#37474F;" d="M76.125,154.378l21.729-12.569c0.717-0.415,1.337-0.081,1.384,0.747l0.209,3.636
				c0.048,0.827-0.495,1.834-1.212,2.249L76.506,161.01c-0.717,0.415-1.337,0.081-1.384-0.747l-0.209-3.636
				C74.865,155.799,75.408,154.793,76.125,154.378z"/>
			<g id="XMLID_117_">
				<path id="XMLID_341_" style="fill:#455A64;" d="M71.599,183.769l31.917-18.427c0.717-0.414,1.338-0.079,1.385,0.748l0.089,1.544
					c0.048,0.827-0.495,1.833-1.213,2.247l-31.917,18.427c-0.717,0.414-1.338,0.079-1.385-0.748l-0.089-1.544
					C70.339,185.189,70.882,184.183,71.599,183.769z"/>
				<path id="XMLID_297_" style="fill:#455A64;" d="M72.302,195.881l31.916-18.444c0.717-0.414,1.338-0.08,1.385,0.747l0.089,1.544
					c0.048,0.827-0.495,1.833-1.213,2.247l-31.916,18.427c-0.717,0.414-1.338,0.079-1.386-0.747l-0.088-1.526
					C71.042,197.302,71.584,196.295,72.302,195.881z"/>
				<path id="XMLID_245_" style="fill:#455A64;" d="M73.004,207.993l31.916-18.461c0.717-0.415,1.337-0.081,1.385,0.746l0.089,1.544
					c0.048,0.827-0.495,1.833-1.213,2.247l-31.916,18.427c-0.717,0.414-1.338,0.08-1.385-0.748l-0.087-1.508
					C71.745,209.414,72.287,208.408,73.004,207.993z"/>
				<path id="XMLID_244_" style="fill:#455A64;" d="M73.707,220.105l31.915-18.477c0.717-0.415,1.337-0.081,1.384,0.746l0.089,1.544
					c0.048,0.827-0.495,1.833-1.213,2.248l-31.917,18.427c-0.717,0.414-1.338,0.08-1.385-0.747l-0.086-1.491
					C72.448,221.527,72.99,220.52,73.707,220.105z"/>
			</g>
			<g id="XMLID_30_">
				<g id="XMLID_219_">
					<path id="XMLID_118_" style="fill:#27DEBF;" d="M115.778,165.342l4.589-2.65c0.717-0.414,1.338-0.08,1.387,0.747l1.417,24.158
						c0.049,0.827-0.494,1.833-1.211,2.247l-4.589,2.649c-0.717,0.414-1.338,0.08-1.387-0.747l-1.417-24.158
						C114.518,166.762,115.06,165.756,115.778,165.342z"/>
					<path id="XMLID_204_" style="fill:#37474F;" d="M117.632,197.034l4.589-2.65c0.717-0.414,1.328-0.242,1.365,0.385
						c0.036,0.627-0.516,1.471-1.233,1.885l-4.589,2.65c-0.717,0.414-1.328,0.242-1.364-0.385
						C116.363,198.292,116.915,197.448,117.632,197.034z"/>
				</g>
				<g id="XMLID_216_">
					<path id="XMLID_209_" style="fill:#27DEBF;" d="M132.125,167.768l4.589-2.65c0.717-0.414,1.338-0.079,1.386,0.747l0.739,12.669
						c0.048,0.827-0.494,1.833-1.212,2.247l-4.589,2.649c-0.717,0.414-1.338,0.08-1.386-0.747l-0.739-12.669
						C130.865,169.188,131.407,168.182,132.125,167.768z"/>
					<path id="XMLID_393_" style="opacity:0.1;" d="M132.125,167.768l4.589-2.65c0.717-0.414,1.338-0.079,1.386,0.747l0.739,12.669
						c0.048,0.827-0.494,1.833-1.212,2.247l-4.589,2.649c-0.717,0.414-1.338,0.08-1.386-0.747l-0.739-12.669
						C130.865,169.188,131.407,168.182,132.125,167.768z"/>
					<path id="XMLID_205_" style="fill:#37474F;" d="M133.3,187.97l4.589-2.65c0.717-0.414,1.328-0.242,1.365,0.385
						c0.036,0.627-0.516,1.471-1.234,1.885l-4.589,2.65c-0.717,0.414-1.328,0.242-1.365-0.385
						C132.031,189.228,132.583,188.384,133.3,187.97z"/>
				</g>
				<g id="XMLID_215_">
					<path id="XMLID_212_" style="fill:#27DEBF;" d="M146.78,140.274l4.589-2.65c0.717-0.414,1.337-0.079,1.384,0.748l1.757,31.098
						c0.047,0.827-0.497,1.833-1.214,2.248l-4.589,2.649c-0.717,0.414-1.337,0.079-1.384-0.748l-1.757-31.098
						C145.519,141.695,146.063,140.689,146.78,140.274z"/>
					<path id="XMLID_406_" style="opacity:0.2;" d="M146.78,140.274l4.589-2.65c0.717-0.414,1.337-0.079,1.384,0.748l1.757,31.098
						c0.047,0.827-0.497,1.833-1.214,2.248l-4.589,2.649c-0.717,0.414-1.337,0.079-1.384-0.748l-1.757-31.098
						C145.519,141.695,146.063,140.689,146.78,140.274z"/>
					<path id="XMLID_210_" style="fill:#37474F;" d="M148.968,178.906l4.589-2.65c0.717-0.414,1.328-0.242,1.365,0.385
						c0.036,0.627-0.516,1.471-1.234,1.885l-4.589,2.649c-0.717,0.414-1.328,0.242-1.365-0.385
						C147.699,180.164,148.251,179.32,148.968,178.906z"/>
				</g>
				<g id="XMLID_194_">
					<path id="XMLID_214_" style="fill:#27DEBF;" d="M163.253,144.943l4.589-2.65c0.717-0.414,1.336-0.079,1.382,0.748l0.956,17.365
						c0.046,0.827-0.499,1.834-1.216,2.248l-4.589,2.649c-0.717,0.414-1.336,0.079-1.382-0.748l-0.957-17.365
						C161.991,146.363,162.535,145.357,163.253,144.943z"/>
					<path id="XMLID_685_" style="opacity:0.3;" d="M163.253,144.943l4.589-2.65c0.717-0.414,1.336-0.079,1.382,0.748l0.956,17.365
						c0.046,0.827-0.499,1.834-1.216,2.248l-4.589,2.649c-0.717,0.414-1.336,0.079-1.382-0.748l-0.957-17.365
						C161.991,146.363,162.535,145.357,163.253,144.943z"/>
					<path id="XMLID_213_" style="fill:#37474F;" d="M164.636,169.842l4.589-2.65c0.717-0.414,1.328-0.242,1.365,0.385
						c0.036,0.627-0.516,1.471-1.234,1.885l-4.589,2.649c-0.717,0.414-1.328,0.242-1.365-0.385
						C163.367,171.1,163.919,170.257,164.636,169.842z"/>
				</g>
			</g>
		</g>
	</g>
</g>
<g id="Character_2">
	<g id="XMLID_834_">
		<g id="XMLID_927_">
			<path id="XMLID_18472_" style="fill:#B16668;" d="M277.071,190.294l7.797-4.593c0.529,1.385,1.024,2.613,1.46,3.605
				c0.422,0.959,2.446,2.236,3.398,2.673c2.555,1.171,3.704,2.564,5.725,4.196c1.582,1.277,2.815,1.486,2.693,1.974
				c-0.159,0.627-1.027,1.721-2.802,1.422c-0.893-0.15-2.09-0.678-3.589-1.383c0,0,1.366,2.775,4.199,5.453
				c3.84,3.631,4.309,6.106-2.371,7.034c-4.186,0.582-7.865-1.569-12.218-10.394C280.109,197.739,278.142,193.724,277.071,190.294z"
				/>
			<path id="XMLID_18469_" style="fill:#27DEBF;" d="M265.906,112.817c0,0-1.617,4.552-3.192,7.24
				c-1.271,2.169-0.205,36.791,0.437,39.697c0.643,2.906,13.313,31.226,13.313,31.226s5.157,1.529,9.912-3.089l-9.419-29.652
				l-0.588-25.27C276.369,132.969,276.738,114.745,265.906,112.817z"/>
			<path id="XMLID_928_" style="opacity:0.1;" d="M265.906,112.817c0,0-1.617,4.552-3.192,7.24
				c-1.271,2.169-0.205,36.791,0.437,39.697c0.643,2.906,13.313,31.226,13.313,31.226s5.157,1.529,9.912-3.089l-9.419-29.652
				l-0.588-25.27C276.369,132.969,276.738,114.745,265.906,112.817z"/>
		</g>
		<g id="XMLID_878_">
			<g id="XMLID_919_">
				
					<rect id="XMLID_925_" x="226.212" y="296.543" transform="matrix(-1 -1.224647e-16 1.224647e-16 -1 461.7914 609.1213)" style="fill:#B16668;" width="9.367" height="16.035"/>
				<polygon id="XMLID_924_" style="fill:#B16668;" points="264.524,300.435 273.885,300.757 274.354,283.788 264.524,283.466 				
					"/>
				<path id="XMLID_923_" style="fill:#37474F;" d="M227.529,182.074c0,8.945-0.617,60.953-0.617,60.953
					c-0.218,2.574-2.696,7.15-2.888,16.421c-0.279,13.444,1.788,45.113,1.788,45.113s4.547,2.657,10.429,0.206
					c0,0,7.357-44.794,9.036-58.101c1.465-11.614,6.519-42.618,6.519-42.618l7.159,39.259c0,0-1.727,6.927-1.161,14.886
					c0.438,6.155,6.137,36.987,6.137,36.987s4.409,2.992,10.815,0.828c0,0,0.559-48.397,0.667-54.044
					c0.124-6.439-2.685-61.825-2.685-61.825L227.529,182.074z"/>
				<path id="XMLID_922_" style="fill:#263238;" d="M235.579,307.954c0,0-0.001-1.338,0-1.338c0.502-0.011,0.813,0.488,1.005,1.694
					c0.137,0.862,0.264,1.514,0.548,2.65c0.434,1.735,0.825,2.796,1.636,4.794c1.324,3.263,2.436,4.478,5.468,8.293
					c0.719,0.905,2.343,2.342,2.909,3.35c0.566,1.008,0.765,3.812-0.196,4.453c-3.537,2.358-8.907,2.423-12.706,1.31
					c-2.922-0.857-5.031-3.191-5.516-6.197c-0.139-0.863-0.088-1.746-0.187-2.615c-0.226-1.982-1.221-3.793-2.346-5.441
					c-0.652-0.956-1.362-1.89-1.799-2.961c-0.787-1.925-0.156-4.091,0.347-6.009c0.434-1.656,0.905-3.477,1.47-3.322
					c0.002,0.202,0,1.021,0,1.021c0.68,0.754,2.561,1.502,4.683,1.583C232.266,309.272,235.59,309,235.579,307.954z"/>
				<path id="XMLID_921_" style="fill:#263238;" d="M273.985,297.869c0.486,0.017,0.882,0.703,1.955,1.864
					c1.297,1.403,3.417,2.917,5.51,3.965c3.507,1.756,10.326,4.457,13.413,5.847c1.928,0.868,1.838,3.197-0.155,4.523
					c-1.993,1.325-6.804,2.28-12.582,0.988c-3.147-0.704-7.244-3.611-9.838-3.454c-2.593,0.157-7.446,0.12-9.36-1.2
					c-1.914-1.319-1.148-4.138-0.607-6.559c0.59-2.643,1.329-6.764,2.204-6.583v0.911c1.126,1.705,6.937,2.399,9.411,1.144
					L273.985,297.869z"/>
				<path id="XMLID_920_" style="fill:#263238;" d="M251.795,204.047c0,0,7.487-2.109,13.044-7.479c0,0-2.517,4.712-10.002,9.098
					l3.621,34.921L251.795,204.047z"/>
			</g>
			<g id="XMLID_912_">
				<path id="XMLID_914_" style="fill:#F5F5F5;" d="M243.769,113.45c-3.184,0.766-9.607,1.817-11.05,8.17
					c-1.732,7.625-2.296,24.23-2.296,24.23l-0.591,36.947c6.451,4.699,30.143,7.257,43.719-2.658c0,0-1.661-44.366-1.661-51.271
					c0-6.906-3.837-15.202-14.431-15.818L243.769,113.45z"/>
				<path id="XMLID_18271_" style="fill:#27DEBF;" d="M257.31,112.333c0,0,4.762,3.781,6.051,9.368
					c1.289,5.587,1.497,67.98,1.497,67.98s6.622-1.224,9.725-3.66c0,0-0.402-49.253-1.032-57.394
					c-0.957-12.349-0.856-15.909-16.232-17.211L257.31,112.333z"/>
				<path id="XMLID_18267_" style="fill:#27DEBF;" d="M240.979,111.415c0.001-0.006,8.828,5.433,8.926,27.04
					c0.085,18.682,0.71,51.225,0.71,51.225s-14.617,2.147-23.876-3.385c0,0-1.103-45.302-0.927-52.319
					c0.201-8.033,2.081-18.415,4.654-19.448C235.156,112.645,240.979,111.415,240.979,111.415z"/>
				<path id="XMLID_18474_" style="fill:#B16668;" d="M220.731,126.351c-4.137,7.03-13.101,21.199-13.101,21.199
					c-0.792-0.624-19.632-12.421-23.876-17.688c-1.009-2.063-1.782-3.798-3.2-5.648c-1.624-2.119-3.302-4.197-5.033-6.231
					c-0.131-0.154-0.266-0.311-0.44-0.413c-0.636-0.375-1.493,0.183-1.704,0.891c-0.21,0.708,0.022,1.464,0.252,2.166
					c0.302,0.921,1.239,2.204-0.064,2.418c-1.092,0.18-2.269-0.303-3.251-0.726c-1.667-0.718-3.305-1.507-4.907-2.364
					c-1.032-0.552-2.102-1.147-3.272-1.165c-1.709-0.027-3.269,1.279-3.824,2.895c-0.556,1.616-0.221,3.445,0.601,4.943
					c0.822,1.498,2.089,2.706,3.44,3.753c2.928,2.269,6.808,3.311,10.362,4.249c1.716,0.453,2.865,0.988,5.001,2.341
					c2.833,1.98,17.579,14.538,24.63,19.701c6.391,4.68,8.194,2.846,11.921-0.931c3.728-3.777,17.792-21.548,17.792-21.548
					L220.731,126.351z"/>
				<path id="XMLID_18473_" style="fill:#27DEBF;" d="M233.082,113.573c-9.584,2.799-8.94,6.19-15.324,16.373
					c-6.383,10.183-10.644,14.806-10.644,14.806l-20.362-12.83c0,0-4.256,2.736-6.536,8.359c0,0,20.473,15.878,23.321,17.658
					c4.062,2.539,6.148,3.521,9.485,0.703c3.337-2.818,16.809-17.63,16.809-17.63C235.987,134.787,237.283,118.161,233.082,113.573z
					"/>
				<path id="XMLID_913_" style="opacity:0.1;" d="M233.082,113.573c-9.584,2.799-8.94,6.19-15.324,16.373
					c-6.383,10.183-10.644,14.806-10.644,14.806l-20.362-12.83c0,0-4.256,2.736-6.536,8.359c0,0,20.473,15.878,23.321,17.658
					c4.062,2.539,6.148,3.521,9.485,0.703c3.337-2.818,16.809-17.63,16.809-17.63C235.987,134.787,237.283,118.161,233.082,113.573z
					"/>
				<polygon id="XMLID_18470_" style="opacity:0.1;" points="239.989,123.232 244.031,128.235 242.01,133.932 247.325,147.55 
					240.917,133.932 243.16,128.555 				"/>
				<polygon id="XMLID_18374_" style="opacity:0.1;" points="268.504,121.623 267.625,126.796 271.127,131.354 266.259,146.686 
					270.027,131.523 266.798,127.262 				"/>
			</g>
			<g id="XMLID_879_">
				<g id="XMLID_887_">
					
						<ellipse id="XMLID_911_" transform="matrix(0.7071 -0.7071 0.7071 0.7071 17.386 207.301)" style="fill:#263238;" cx="258.927" cy="82.664" rx="12.873" ry="12.873"/>
					<path id="XMLID_910_" style="fill:#263238;" d="M236.675,91.817c0,0,2.086,9.8,2.923,11.411
						c0.837,1.61,2.565,2.068,2.565,2.068l-0.146-6.894L236.675,91.817z"/>
					<path id="XMLID_909_" style="fill:#263238;" d="M239.293,77.777c0,0-2.247-0.385-3.998,1.406
						c-1.717,1.756-0.758,7.251,1.38,12.634l3.929,0.451L239.293,77.777z"/>
					<path id="XMLID_908_" style="fill:#B16668;" d="M241.783,92.271c-0.788,0.471-1.912-1.043-2.884-2.06
						c-0.972-1.016-4.144-2.406-5.726,0.928c-1.612,3.398,1.397,7.887,3.894,8.671c4.304,1.351,4.95-1.41,4.95-1.41l0.318,15.998
						l0,0c2.976,3.815,9.661,8.299,13.26,7.659c2.872-0.511,3.499-5.363,0.753-8.544l-0.012-4.724c0,0,3.899,0.592,5.802,0.298
						c3.165-0.489,5.156-2.986,6.116-6.412c1.542-5.503,2.128-9.946,0.819-20.767c-1.434-11.861-15.23-11.985-22.68-7.296
						C238.942,79.301,241.783,92.271,241.783,92.271z"/>
					<path id="XMLID_907_" style="fill:#263238;" d="M241.783,93.597c-0.396,0.008-1.903-2.493-2.884-3.385
						c-1.359-1.237,0.394-12.435,0.394-12.435s-1.681-3.165,0.936-6.046c1.862-2.049,4.459-4.551,12.907-3.552
						c6.022,0.712,12.576,2.59,17.872-0.011c0.793,3.295,0.152,6.97-3.139,9.574c0,0-1.917,1.236-6.958,1.85
						c-5.041,0.614-12.893-0.118-13.967-0.265c-1.462-0.2-1.774,1.217-2.562,5.088C243.689,87.812,243.115,93.571,241.783,93.597z"
						/>
					<path id="XMLID_889_" style="fill:#263238;" d="M239.301,78.648l-4.764-2.557c0.676-1.365,2.291-1.899,3.606-1.193
						C239.459,75.604,239.977,77.283,239.301,78.648z"/>
					<path id="XMLID_888_" style="fill:#9A4A4D;" d="M256.335,108.79c0,0-7.065-1.423-9.535-2.736
						c-1.653-0.879-3.015-2.402-3.414-3.378c0,0,0.463,2.096,1.94,3.985c1.806,2.309,11.009,4.01,11.009,4.01L256.335,108.79z"/>
				</g>
				<g id="XMLID_880_">
					<path id="XMLID_886_" style="fill:#263238;" d="M254.637,90.505c0,0.813-0.634,1.469-1.416,1.467
						c-0.782-0.002-1.416-0.662-1.416-1.475c0-0.812,0.634-1.469,1.416-1.467C254.003,89.032,254.637,89.692,254.637,90.505z"/>
					<path id="XMLID_885_" style="fill:#263238;" d="M253.136,85.16l-3.029,1.672c-0.447-0.87-0.13-1.95,0.706-2.411
						C251.649,83.958,252.689,84.289,253.136,85.16z"/>
					<path id="XMLID_884_" style="fill:#9A4A4D;" d="M255.695,100.285l3.232,1.213c-0.32,0.926-1.303,1.406-2.195,1.071
						C255.84,102.234,255.375,101.211,255.695,100.285z"/>
					<path id="XMLID_883_" style="fill:#263238;" d="M267.262,86.338l-2.762-2.127c0.563-0.791,1.638-0.956,2.401-0.368
						C267.664,84.43,267.826,85.547,267.262,86.338z"/>
					<path id="XMLID_882_" style="fill:#263238;" d="M266.412,90.102c0,0.812-0.634,1.469-1.416,1.467
						c-0.782-0.002-1.416-0.662-1.416-1.475c0-0.812,0.634-1.469,1.416-1.467C265.778,88.629,266.412,89.289,266.412,90.102z"/>
					<polygon id="XMLID_881_" style="fill:#9A4A4D;" points="259.199,88.759 259.664,97.273 264.109,95.758 					"/>
				</g>
				<g id="XMLID_953_">
					<path id="XMLID_938_" style="fill:#27DEBF;" d="M260.737,121.08c-0.869,2.063-2.471,2.905-5.376,3.231
						s-6.434-1.113-8.036-2.796l3.614-3.597l4.58,3.452l0.391-3.845L260.737,121.08z"/>
					<path id="XMLID_952_" style="opacity:0.1;" d="M260.737,121.08c-0.869,2.063-2.471,2.905-5.376,3.231s-6.434-1.113-8.036-2.796
						l3.614-3.597l4.58,3.452l0.391-3.845L260.737,121.08z"/>
					<g id="XMLID_934_">
						<path id="XMLID_937_" style="fill:#27DEBF;" d="M258.461,119.954c0,0,0.716,1.991,0.477,3.866
							c-0.255,2.008-1.29,3.222-1.29,3.222s-1.153,0.916-3.122,0.339c-1.539-1.42-3.089-3.696-2.972-6.465l3.966,0.453
							L258.461,119.954z"/>
						<path id="XMLID_936_" style="fill:#27DEBF;" d="M257.648,127.042c0,0,4.701,25.947,4.892,28.041
							c0.19,2.094-2.701,9.534-4.493,9.597c-1.792,0.064-5.311-6.672-5.364-8.576c-0.053-1.904,1.843-28.724,1.843-28.724
							L257.648,127.042z"/>
						<path id="XMLID_935_" style="opacity:0.1;" d="M254.525,127.382c0,0,1.602,0.793,3.122-0.339l0.074,0.41
							c0,0-1.314,1.19-3.247,0.643L254.525,127.382z"/>
					</g>
					<g id="XMLID_930_">
						<g id="XMLID_931_">
							<path id="XMLID_933_" style="fill:#E0E0E0;" d="M255.519,121.369l-13.247-10.091l-0.059-2.993c0,0-3.079,1.168-3.771,6.603
								c1.887,4.384,5.307,8.125,10.329,10.988l2.782-4.96L255.519,121.369z"/>
							<path id="XMLID_932_" style="fill:#E0E0E0;" d="M256.335,109.66c0,0,2.944,0.437,4.273,2.627
								c1.326,2.186,1.022,10.545,1.022,10.545l-3.169-2.878l-2.942,1.416c0.283-2.785,0.828-7.855,0.828-7.855L256.335,109.66z"/>
						</g>
					</g>
				</g>
			</g>
		</g>
	</g>
</g>
<g id="Character_1">
	<g id="XMLID_714_">
		<g id="Legs">
			<g id="XMLID_1005_">
				<g id="XMLID_249_">
					<path id="XMLID_251_" style="fill:#263238;" d="M338.391,345.664c0.529,0.702,0.625,2.322,1.161,4.514
						c0.536,2.191,0.717,3.89,0.358,4.962c-0.358,1.073-2.623,3.871-5.604,4.38c-1.697,0.29-4.388,0.362-7.828-1.694
						c-3.44-2.056-4.792-3.63-12.641-4.197c-5.081-0.367-8.737-2.578-10.963-4.554c-3.029-2.689-2.305-7.453,2.935-7.428
						c6.293,0.03,15.112,1.143,23.641-0.007L338.391,345.664z"/>
				</g>
				<g id="XMLID_1004_">
					<path id="XMLID_28704_" style="fill:#263238;" d="M368.811,335.794c0.529,0.702,0.625,2.322,1.161,4.514
						c0.536,2.191,0.717,3.89,0.358,4.962c-0.358,1.073-2.623,3.871-5.604,4.38c-1.697,0.29-4.388,0.362-7.828-1.694
						c-3.44-2.056-4.792-3.63-12.641-4.197c-5.081-0.367-8.737-2.578-10.963-4.553c-3.03-2.689-2.305-7.453,2.935-7.428
						c6.293,0.03,15.112,1.143,23.641-0.007L368.811,335.794z"/>
				</g>
				<g id="XMLID_1008_">
					<path id="XMLID_1009_" style="fill:#FFA8A7;" d="M368.826,329.18v7.701c0,0-1.057,2.561-5.448,2.724
						c-2.678,0.099-4.629-1.126-5.826-2.789v-7.635H368.826z"/>
				</g>
				<g id="XMLID_1006_">
					<path id="XMLID_1007_" style="fill:#37474F;" d="M354.118,278.796c-0.055,9.581,2.69,53.759,2.69,53.759s3.918,4.957,12.428,0
						l2.889-49.022L354.118,278.796z"/>
				</g>
			</g>
			<g id="XMLID_999_">
				<g id="XMLID_1001_">
					<path id="XMLID_28702_" style="fill:#FFA8A7;" d="M339.93,339.237l-1.539,7.701c0,0-1.057,2.561-5.448,2.724
						c-2.678,0.099-4.629-1.126-5.826-2.789l0.627-8.855L339.93,339.237z"/>
				</g>
				<g id="XMLID_1000_">
					<path id="XMLID_28700_" style="fill:#37474F;" d="M331.185,292.038c-0.81,4.425-4.12,48.719-4.12,48.719
						s4.354,6.064,12.864,1.106l9.081-43.271L331.185,292.038z"/>
				</g>
			</g>
		</g>
		<g id="XMLID_1013_">
			<g id="XMLID_14668_">
				<g id="XMLID_14681_">
					<g id="XMLID_14683_">
						<path id="XMLID_1039_" style="fill:#455A64;" d="M354.471,308.976v61.213c0,0.516-0.366,1.149-0.812,1.407l-2.186,1.262
							c-0.447,0.258-1.178,0.258-1.624,0l-2.185-1.262c-0.447-0.258-0.812-0.891-0.812-1.407v-61.213
							c0-1.52,1.232-2.752,2.752-2.752h2.116C353.239,306.224,354.471,307.456,354.471,308.976z"/>
					</g>
					<g id="XMLID_14682_">
						<path id="XMLID_1037_" style="fill:#263238;" d="M348.756,306.224L348.756,306.224c1.052,0,1.905,0.853,1.905,1.905
							l-0.001,64.26c0,0.515-0.365,0.726-0.811,0.468l-2.218-1.28c-0.429-0.248-0.781-0.857-0.781-1.352v-62.096
							C346.851,307.077,347.704,306.224,348.756,306.224z"/>
					</g>
				</g>
				<g id="XMLID_917_">
					<g id="XMLID_1018_">
						<path id="XMLID_1019_" style="fill:#455A64;" d="M428.093,308.976v61.213c0,0.516,0.366,1.149,0.812,1.407l2.186,1.262
							c0.447,0.258,1.178,0.258,1.625,0l2.185-1.262c0.447-0.258,0.812-0.891,0.812-1.407v-61.213c0-1.52-1.232-2.752-2.752-2.752
							h-2.116C429.325,306.224,428.093,307.456,428.093,308.976z"/>
					</g>
					<g id="XMLID_918_">
						<path id="XMLID_1012_" style="fill:#263238;" d="M433.808,306.224L433.808,306.224c-1.052,0-1.905,0.853-1.905,1.905
							l0.001,64.26c0,0.515,0.365,0.726,0.811,0.468l2.218-1.28c0.429-0.248,0.781-0.857,0.781-1.352v-62.096
							C435.713,307.077,434.86,306.224,433.808,306.224z"/>
					</g>
				</g>
				<g id="XMLID_14676_">
					<g id="XMLID_14678_">
						<path id="XMLID_1034_" style="fill:#455A64;" d="M395.092,330.615v63.027c0,0.518-0.364,1.148-0.812,1.407l-2.186,1.262
							c-0.449,0.259-1.176,0.259-1.624,0l-2.185-1.262c-0.449-0.259-0.812-0.889-0.812-1.407v-63.027
							c0-0.518,0.42-0.938,0.938-0.938l5.744,0C394.672,329.677,395.092,330.097,395.092,330.615z"/>
					</g>
					<g id="XMLID_14677_">
						<path id="XMLID_1032_" style="fill:#263238;" d="M388.41,329.677h1.934c0.518,0,0.938,0.42,0.938,0.938l-0.001,65.226
							c0,0.518-0.364,0.728-0.812,0.469l-2.185-1.262c-0.449-0.259-0.812-0.889-0.812-1.407v-63.027
							C387.472,330.097,387.892,329.677,388.41,329.677z"/>
					</g>
				</g>
				<g id="XMLID_14670_">
					<path id="XMLID_1029_" style="fill:#27DEBF;" d="M342.027,310.455v0.841c0,1.381,0.908,3.157,2.027,3.966l45.201,25.926
						c1.119,0.809,2.996,0.905,4.193,0.215l45.548-26.228c1.196-0.691,2.166-2.37,2.166-3.751v-0.863c0-1.381-1.017-2.971-2.27-3.55
						l-45.572-26.308c-1.254-0.579-3.24-0.488-4.436,0.203l-44.691,25.798C342.997,307.393,342.027,309.073,342.027,310.455z"/>
				</g>
				<g id="XMLID_1199_" style="opacity:0.4;">
					<path id="XMLID_1200_" style="fill:#FFFFFF;" d="M344.193,306.702l44.691-25.798c1.196-0.691,3.182-0.782,4.436-0.203
						l45.572,26.308c1.254,0.579,1.301,1.609,0.105,2.299l-45.547,26.228c-1.196,0.691-3.074,0.595-4.193-0.214l-45.2-25.905
						C342.935,308.609,342.997,307.393,344.193,306.702z"/>
				</g>
			</g>
		</g>
		<g id="Character_4_">
			<g id="XMLID_252_">
				<polygon id="XMLID_250_" style="fill:#27DEBF;" points="350.569,210.777 320.592,226.421 335.487,267.149 363.463,251.478 				
					"/>
				<polygon id="XMLID_248_" style="fill:#F5F5F5;" points="349.193,214.765 324.044,227.889 337.227,262.904 360.696,249.756 				
					"/>
				<path id="XMLID_247_" style="opacity:0.15;" d="M343.887,218.542c0,0-0.218-0.558-0.487-1.246
					c-0.269-0.688-2.362-0.278-4.675,0.916l-4.429,2.286c-2.313,1.194-3.97,2.72-3.701,3.408l0.487,1.246L343.887,218.542z"/>
				<g id="XMLID_253_">
					<path id="XMLID_246_" style="fill:#37474F;" d="M343.401,213.559c-0.166-0.43-1.077-0.36-2.035,0.157l-1.734,0.936
						c0,0-1.068-2.69-5.057-0.828c-3.989,1.862-3.078,4.981-3.078,4.981s-0.824,0.454-1.841,1.014
						c-1.017,0.56-1.741,1.369-1.617,1.806l0.224,0.792l15.442-8.057C343.706,214.359,343.567,213.989,343.401,213.559z"/>
					<path id="XMLID_242_" style="fill:#263238;" d="M341.733,215.367c-1.436,0.706-2.002,1.047-1.588,2.108
						c0.472,1.211,0.912,2.081,0.912,2.081l-6.83,3.573c0,0-0.569-1.54-0.818-2.134c-0.249-0.594-0.749-0.879-1.835-0.31
						l-0.405-0.428l10.773-5.491L341.733,215.367z"/>
					<path id="XMLID_228_" style="fill:#37474F;" d="M344.18,218.607c0,0-0.218-0.558-0.487-1.246
						c-0.269-0.688-2.362-0.278-4.675,0.917l-4.429,2.286c-2.313,1.194-3.97,2.72-3.701,3.408l0.487,1.246L344.18,218.607z"/>
				</g>
			</g>
			<g id="XMLID_967_">
				<g id="XMLID_1387_">
					<path id="XMLID_1388_" style="fill:#263238;" d="M427.506,290.533c0,0-39.707-11.982-46.61-13.871
						c-6.903-1.889-20.145-5.072-24.014-3.339c-3.869,1.733-5.834,3.743-6.19,9.325c-0.073,1.049,0,6.157,0,6.157
						s19.192,5.941,34.916,5.941C401.332,294.747,427.506,290.533,427.506,290.533z"/>
				</g>
				<g id="XMLID_998_">
					<polygon id="XMLID_1386_" style="fill:#FFA8A7;" points="393.993,223.028 393.7,237.505 407.654,242.106 409.565,222.437 					
						"/>
				</g>
				<g id="XMLID_14575_">
					<g id="XMLID_996_">
						<path id="XMLID_997_" style="fill:#F28F8F;" d="M382.946,209.141c0,0-3.064,5.364-2.563,5.836
							c0.501,0.472,3.089,0.828,3.089,0.828L382.946,209.141z"/>
					</g>
					<g id="XMLID_990_">
						<path id="XMLID_991_" style="fill:#FFA8A7;" d="M390.434,191.467c-2.997,2.082-6.233,5.938-7.469,17.137
							c-1.355,12.273,1.581,16.226,2.951,17.245c2.048,1.523,10.137,1.268,13.025-0.062c3.614-1.664,10.709-6.199,13.714-12.974
							c3.533-7.971,3.173-17.93-2.528-21.106C402.105,187.237,392.97,189.704,390.434,191.467z"/>
					</g>
					<g id="XMLID_14583_">
						<path id="XMLID_989_" style="fill:#263238;" d="M385.323,195.918c1.788,2.162,3.674,3.387,5.718,4.63
							c1.388,2.199-0.84,8.266,2.211,9.729c0,0,1.397-4.585,5.28-3.831c3.909,0.759,4.22,5.797,1.608,8.735
							c-2.613,2.938-4.873,1.669-4.873,1.669s-0.748,4.739,3.509,8.063c0,0,4.552,3.453,10.429,1.211
							c2.645-1.009,7.064-4.693,9.529-9.595c5.214-10.37,6.424-18.882-0.204-22.031c-0.517-4.906-2.575-6.873-6.907-8.07
							c-9.323-2.575-16.876,3.16-24.734,1.538C382.792,187.12,383.004,193.113,385.323,195.918z"/>
					</g>
					<g id="XMLID_987_">
						<path id="XMLID_988_" style="fill:#263238;" d="M411.655,190.943l4.83-2.069c-0.571-1.334-2.116-1.952-3.449-1.381
							C411.702,188.065,411.084,189.609,411.655,190.943z"/>
					</g>
				</g>
				<g id="XMLID_985_">
					<path id="XMLID_986_" style="fill:#37474F;" d="M426.185,285.885c-0.014,7.628,0.965,15.859-2.215,21.448
						c-3.074,5.403-16.614,16.674-32.84,13.943c-10.599-1.784-44.856-14.839-44.856-14.839s-15.161-5.608-15.23-9.595
						c-0.017-0.976-0.105-1.989-0.041-3.046c0.32-5.307,2.465-11.024,13.561-10.73c12.12,0.321,48.079,6.211,48.079,6.211
						L426.185,285.885z"/>
				</g>
				<g id="XMLID_983_">
					<path id="XMLID_984_" style="fill:#F0F0F0;" d="M424.93,237.742c-1.311-3.984-6.709-9.609-11.767-8.67
						c-9.292,1.726-19.456,4.736-22.151,5.532l-0.003-0.001c0,0,1.209,20.475-9.296,26.673l-0.376,35.978
						c0,0,0.761,2.564,4.773,5.115c4.34,2.759,12.735,3.976,23.301,1.111c14.186-3.846,16.774-11.972,16.774-11.972
						s-0.11-24.142,0-35.179C426.285,246.341,425.83,240.478,424.93,237.742z"/>
				</g>
				<g id="XMLID_981_">
					<path id="XMLID_982_" style="fill:#E0E0E0;" d="M381.663,266.091c0,0,5.271-5.457,7.203-12.067c0,0,0.294,9.846-7.234,15.07
						L381.663,266.091z"/>
				</g>
			</g>
			<g id="XMLID_961_">
				<g id="XMLID_965_">
					<path id="XMLID_966_" style="fill:#FFA8A7;" d="M391.01,234.603c-5.735,1.721-9.229,2.032-15.565,11.781
						c-6.337,9.748-20.681,28.019-22.055,30.343c-1.912,3.232-2.273,8.148-0.623,11.117c1.541,2.772,5.248,1.139,11.536-4.378
						c6.081-5.336,18.911-20.007,18.911-20.007S389.495,249.705,391.01,234.603z"/>
				</g>
				<g id="XMLID_963_">
					<path id="XMLID_964_" style="fill:#F0F0F0;" d="M391.01,234.603c0,0-5.113,1.07-8.291,2.625
						c-0.978,0.478-4.443,1.371-7.065,4.877c-5.149,6.885-11.797,18.51-11.797,18.51s1.186,9.026,12.276,12.208l5.451-6.646
						c2.404-2.594,4.413-5.534,5.878-8.754C389.958,251.935,392.808,243.219,391.01,234.603z"/>
				</g>
			</g>
			<path id="XMLID_960_" style="fill:#FFA8A7;" d="M354.697,289.21c-5.305-0.643-16.758-16.687-20.282-22.178
				c-3.858-6.012-7.452-8.902-10.734-11.327c-5.616-4.148-4.798-10.522-2.348-16.364c0.849-2.023,3.725-0.707,3.725-0.707
				l1.014,2.772l1.756,4.8c1.189,1.104,1.867,1.464,1.946,1.135c0.15-0.619-0.874-3.201-0.849-5.892
				c0.03-3.237,2.297-1.109,2.974,0.025c0.677,1.135,1.468,2.981,2.393,5.348c1.131,2.897,0.664,5.83,2.04,7.805
				c1.377,1.975,19.862,19.686,19.862,19.686L354.697,289.21z"/>
		</g>
		<g id="XMLID_254_">
			<g id="XMLID_342_">
				<path id="XMLID_343_" style="fill:#263238;" d="M403.018,290.586v40.357c0,0.258,0.183,0.574,0.406,0.703l1.093,0.631
					c0.223,0.129,0.589,0.129,0.812,0l1.093-0.631c0.223-0.129,0.406-0.445,0.406-0.703v-40.357c0-0.76-0.616-1.376-1.376-1.376
					h-1.058C403.634,289.21,403.018,289.826,403.018,290.586z"/>
			</g>
			<g id="XMLID_256_">
				<path id="XMLID_258_" style="fill:#455A64;" d="M405.875,289.21L405.875,289.21c-0.526,0-0.953,0.426-0.953,0.952l0,41.881
					c0,0.258,0.182,0.363,0.406,0.234l1.109-0.64c0.215-0.124,0.39-0.428,0.39-0.676v-40.799
					C406.828,289.637,406.401,289.21,405.875,289.21z"/>
			</g>
		</g>
		<g id="XMLID_739_">
			<g id="XMLID_744_">
				<path id="XMLID_750_" style="fill:#263238;" d="M423.328,279.096v40.357c0,0.258,0.183,0.574,0.406,0.703l1.093,0.631
					c0.223,0.129,0.589,0.129,0.812,0l1.092-0.631c0.223-0.129,0.406-0.445,0.406-0.703v-40.357c0-0.76-0.616-1.376-1.376-1.376
					h-1.058C423.944,277.72,423.328,278.336,423.328,279.096z"/>
			</g>
			<g id="XMLID_740_">
				<path id="XMLID_743_" style="fill:#455A64;" d="M426.185,277.72L426.185,277.72c-0.526,0-0.953,0.427-0.953,0.952l0,41.881
					c0,0.258,0.182,0.363,0.406,0.234l1.109-0.64c0.215-0.124,0.39-0.428,0.39-0.676v-40.799
					C427.138,278.147,426.711,277.72,426.185,277.72z"/>
			</g>
		</g>
		<g id="XMLID_709_">
			<path id="XMLID_237_" style="fill:#27DEBF;" d="M435.387,245.474c-1.12-0.65-3.05-0.71-4.3-0.13l-36.08,16.67
				c-0.62,0.29-1.18,0.81-1.59,1.44c-0.06,0.09-0.11,0.18-0.17,0.28c-0.08,0.16-0.16,0.32-0.23,0.49c-0.18,0.44-0.28,0.9-0.28,1.34
				v26.72c0,1.38,0.91,3.03,2.03,3.68c1.05,0.6,2.82,0.69,4.07,0.21c0.08-0.02,0.15-0.05,0.23-0.09l1.79-0.83l34.29-15.84
				c1.25-0.57,2.27-2.16,2.27-3.54v-26.73C437.417,247.764,436.507,246.124,435.387,245.474z"/>
			<path id="XMLID_255_" style="opacity:0.4;fill:#FFFFFF;" d="M437.417,249.144c0-1.38-1.02-2.03-2.27-1.45l-36.08,16.66
				c-0.61,0.29-1.18,0.82-1.59,1.45l-4.06-2.35c0.41-0.63,0.97-1.15,1.59-1.44l36.08-16.67c1.25-0.58,3.18-0.52,4.3,0.13
				C436.507,246.124,437.417,247.764,437.417,249.144z"/>
			<path id="XMLID_257_" style="opacity:0.1;" d="M398.837,296.174c-1.25,0.48-3.02,0.39-4.07-0.21c-1.12-0.65-2.03-2.3-2.03-3.68
				v-26.72c0-0.44,0.1-0.9,0.28-1.34c0.07-0.17,0.15-0.33,0.23-0.49c0.06-0.1,0.11-0.19,0.17-0.28l4.06,2.35
				c-0.42,0.65-0.68,1.4-0.68,2.1v26.73C396.797,295.924,397.697,296.584,398.837,296.174z"/>
		</g>
	</g>
</g>
</svg>
